<?xml version="1.0" encoding="UTF-8"?>
<svg width="123px" height="48px" viewBox="0 0 123 48" version="1.1" xmlns="http://www.w3.org/2000/svg" xmlns:xlink="http://www.w3.org/1999/xlink">
    <title>Logo/default</title>
    <defs>
        <linearGradient x1="0.929647436%" y1="50.8632903%" x2="100.771074%" y2="50.8632903%" id="linearGradient-1">
            <stop stop-color="#FFF200" offset="0%"></stop>
            <stop stop-color="#D2232A" offset="100%"></stop>
        </linearGradient>
        <linearGradient x1="0.954086538%" y1="50.899992%" x2="100.795513%" y2="50.899992%" id="linearGradient-2">
            <stop stop-color="#25408F" offset="0%"></stop>
            <stop stop-color="#41AD49" offset="62%"></stop>
            <stop stop-color="#00AEEF" offset="100%"></stop>
        </linearGradient>
    </defs>
    <g id="Logo/default" stroke="none" stroke-width="1" fill="none" fill-rule="evenodd">
        <g id="wiliot_logo" fill-rule="nonzero">
            <path d="M119.654943,41.8922264 L118.369811,40.5645283 C116.819695,41.941379 114.605645,42.2798214 112.714993,41.4289304 C110.824342,40.5780395 109.609446,38.696394 109.612075,36.6230943 L109.612075,20.4679245 L113.997283,20.4679245 L113.997283,14.4353208 L109.612075,14.4353208 L109.612075,0 L103.582189,0 L103.582189,36.6285283 C103.584081,38.4638265 104.03459,40.2708398 104.894491,41.8922264 C105.960015,43.9010304 107.603271,45.5442869 109.612075,46.6098113 C112.911021,48.3547368 116.859545,48.3547368 120.158491,46.6098113 C121.03266,46.1430052 121.842459,45.5645768 122.567547,44.8890566 L120.158491,42.4120755 L119.654943,41.8922264 Z" id="Path" fill="#231F20"></path>
            <path d="M44.978717,22.3018868 L44.978717,47.9184906 L51.0067925,47.9184906 L51.0067925,22.3018868 L44.978717,22.3018868 Z M44.978717,19.5658868 L51.0067925,19.5658868 L51.0067925,13.5378113 L44.978717,13.5378113 L44.978717,19.5658868 Z" id="Shape" fill="#231F20"></path>
            <polygon id="Path" fill="#231F20" points="56.8057358 0 56.8057358 16.9113962 56.8057358 36.6439245 56.8057358 47.9184906 62.8338113 47.9184906 62.8338113 45.4677736 62.8338113 36.6439245 62.8338113 16.9113962 62.8338113 8.08845283 62.8338113 0"></polygon>
            <path d="M68.6327547,22.3018868 L68.6327547,47.9184906 L74.6608302,47.9184906 L74.6608302,22.3018868 L68.6327547,22.3018868 Z M68.6327547,19.2887547 L74.6617358,19.2887547 L74.6617358,13.2606792 L68.6327547,13.2606792 L68.6327547,19.2887547 Z" id="Shape" fill="#231F20"></path>
            <g id="Group-3" transform="translate(95.003774, 4.437736)" fill="url(#linearGradient-1)">
                <path d="M3.01381132,0.654810566 C2.01124528,1.18625208 1.18691321,2.01013132 0.655924528,3.01342189 C0.238233962,3.80107472 4.52830189e-05,4.69822189 4.52830189e-05,5.65043321 C4.52830189e-05,6.60255396 0.238233962,7.4997917 0.655924528,8.2869917 C1.18691321,9.29001057 2.01124528,10.113437 3.01381132,10.6453313 C3.80173585,11.0633842 4.69888302,11.3015728 5.65073208,11.3015728 C6.60249057,11.3015728 7.50045283,11.0633842 8.28810566,10.6460558 C9.29112453,10.1141615 10.1149132,9.29001057 10.6470792,8.2869917 C11.0628679,7.50133132 11.3003321,6.60563321 11.3018717,5.6557766 C11.3018717,5.65459925 11.3025962,5.65278792 11.3025962,5.65043321 C11.3025962,5.64853132 11.3018717,5.64545208 11.3018717,5.64436528 C11.3003321,4.69441811 11.0628679,3.79953509 10.6470792,3.01342189 C10.1149132,2.01013132 9.29112453,1.18625208 8.28810566,0.654810566 C7.50045283,0.23712 6.60249057,0.000108679245 5.65073208,0.000108679245 C4.69888302,0.000108679245 3.80173585,0.23712 3.01381132,0.654810566 M3.01417358,5.65043321 C3.01417358,4.19585208 4.19660377,3.01342189 5.65073208,3.01342189 C7.10422642,3.01342189 8.28620377,4.19431245 8.28810566,5.64735396 L8.28810566,5.65342189 C8.28620377,7.10573887 7.10422642,8.2869917 5.65073208,8.2869917 C4.19660377,8.2869917 3.01417358,7.10428981 3.01417358,5.65043321" id="Fill-1"></path>
            </g>
            <path d="M28.3308679,47.9184906 L28.3308679,47.904 C30.0147624,47.83887 31.6624117,47.3956173 33.1516981,46.6070943 C35.1608058,45.5423985 36.8042015,43.8993183 37.869283,41.8904151 C38.7297242,40.2696416 39.1797736,38.4626337 39.1797736,36.6276226 L39.1797736,13.5378113 L33.1516981,13.5378113 L33.1516981,36.6230943 C33.1499474,39.5356565 30.7874301,41.8953355 27.8748679,41.8935848 C24.9623058,41.8918342 22.6026268,39.5293169 22.6043774,36.6167547 C22.6043774,36.6122264 22.6043774,36.6095094 22.6043774,36.6049811 L22.6043774,13.5378113 L16.5735849,13.5378113 L16.5735849,36.6230943 C16.5735849,36.7263396 16.5645283,36.8259623 16.5590943,36.9283019 L16.5590943,36.9283019 C16.5194809,37.5996091 16.3509798,38.2570096 16.0627925,38.8646038 L16.0627925,38.8736604 C15.9948679,39.018566 15.9196981,39.1589434 15.8390943,39.2947925 L15.8246038,39.317434 C15.746717,39.4487547 15.6643019,39.5737358 15.5737358,39.698717 L15.5456604,39.7358491 C15.4596226,39.8535849 15.3690566,39.9667925 15.2739623,40.077283 C15.2594717,40.0953962 15.2431698,40.1098868 15.2268679,40.1289057 C15.1363019,40.2321509 15.0457358,40.3308679 14.9415849,40.4259623 C14.9180377,40.4486038 14.8935849,40.469434 14.8691321,40.4911698 C14.778566,40.5817358 14.6771321,40.6650566 14.5766038,40.7456604 C14.544,40.7710189 14.5104906,40.794566 14.4769811,40.8190189 C14.3800755,40.893283 14.2822642,40.9648302 14.1817358,41.0309434 C14.1382642,41.0581132 14.0911698,41.0834717 14.0495094,41.1106415 C13.9535094,41.1704151 13.8575094,41.2274717 13.7596981,41.2809057 C13.7026415,41.3098868 13.6455849,41.3343396 13.5903396,41.3615094 C13.4997736,41.4067925 13.4092075,41.4520755 13.3104906,41.4910189 C13.242566,41.5181887 13.1719245,41.5426415 13.104,41.5670943 C13.013434,41.6006038 12.9283019,41.6332075 12.8386415,41.6576604 C12.7489811,41.6821132 12.6701887,41.7011321 12.5877736,41.7237736 C12.5053585,41.7464151 12.426566,41.7672453 12.3450566,41.7844528 C12.242717,41.8043774 12.1376604,41.8161509 12.0335094,41.8315472 C11.9655849,41.8396981 11.9003774,41.853283 11.8333585,41.861434 C11.664,41.8759245 11.4910189,41.8858868 11.3171321,41.8867925 L11.2926792,41.8867925 C11.1169811,41.8867925 10.946717,41.8759245 10.7773585,41.861434 C10.709434,41.853283 10.6451321,41.8396981 10.5781132,41.8315472 C10.4721509,41.8161509 10.368,41.8043774 10.2647547,41.7844528 C10.1841509,41.7672453 10.1053585,41.7436981 10.0256604,41.7237736 C9.94596226,41.7038491 9.85539623,41.6830189 9.77026415,41.6576604 C9.68513208,41.6323019 9.59637736,41.5978868 9.50943396,41.5670943 C9.43879245,41.5426415 9.36815094,41.5181887 9.29932075,41.4892075 C9.20422642,41.4520755 9.11275472,41.4058868 9.02218868,41.3624151 C8.96513208,41.3343396 8.90535849,41.3089811 8.85011321,41.2781887 C8.75230189,41.226566 8.65720755,41.1704151 8.56120755,41.1115472 C8.51683019,41.0843774 8.47064151,41.0581132 8.42716981,41.0291321 C8.32754717,40.9639245 8.22973585,40.8923774 8.13554717,40.8199245 C8.10022642,40.7954717 8.06581132,40.7710189 8.03230189,40.7438491 C7.93177358,40.6641509 7.83396226,40.5772075 7.73977358,40.4911698 L7.66822642,40.4250566 C7.56860377,40.3299623 7.47260377,40.2312453 7.38113208,40.1270943 C7.36664151,40.1089811 7.34943396,40.0944906 7.33403774,40.0763774 C7.2434717,39.9658868 7.15290566,39.8517736 7.06233962,39.7340377 C7.05509434,39.7213585 7.04513208,39.7104906 7.03788679,39.698717 C6.94732075,39.5728302 6.86218868,39.4460377 6.78249057,39.3138113 C6.78013029,39.3068293 6.77643965,39.3003706 6.77162264,39.2947925 C6.69101887,39.1580377 6.6149434,39.0158491 6.54611321,38.8700377 C6.25809132,38.2618432 6.09018916,37.6037652 6.05162264,36.9319245 L6.05162264,36.9319245 C6.04528302,36.8295849 6.03441509,36.7299623 6.03441509,36.626717 L6.03441509,13.5378113 L0,13.5378113 L0,36.6321509 C0.0010926702,38.466928 0.450668509,40.2736259 1.30958491,41.8949434 C1.43366038,42.1267925 1.56498113,42.3477736 1.70445283,42.573283 C1.78233962,42.7000755 1.86837736,42.821434 1.95169811,42.9455094 C2.00603774,43.0252075 2.0594717,43.106717 2.11743396,43.1864151 C2.23788679,43.3548679 2.36558491,43.5187925 2.496,43.6809057 L2.55215094,43.7524528 C2.69886792,43.9335849 2.85101887,44.1056604 3.00498113,44.2750189 C3.00498113,44.2750189 3.00498113,44.2750189 3.01041509,44.2813585 C3.01584906,44.2876981 3.01041509,44.2858868 3.01584906,44.2876981 C3.22143396,44.5095849 3.43698113,44.7251321 3.66067925,44.9298113 L3.70777358,44.9741887 C3.91154717,45.1553208 4.1234717,45.3364528 4.34173585,45.5076226 C4.37977358,45.5384151 4.41781132,45.5710189 4.45584906,45.5981887 C4.65237736,45.7485283 4.85433962,45.8898113 5.06083019,46.0274717 C5.11969811,46.0655094 5.17675472,46.1089811 5.23471698,46.1452075 C5.47381132,46.2982642 5.71924528,46.4431698 5.97101887,46.5772075 L6.02535849,46.6098113 C6.08060377,46.6396981 6.13766038,46.6650566 6.19290566,46.6931321 C6.32603774,46.7610566 6.45826415,46.8280755 6.59501887,46.890566 C6.69735849,46.9376604 6.80422642,46.9811321 6.90837736,47.0246038 C7.0125283,47.0680755 7.08950943,47.1024906 7.18007547,47.1396226 C7.30867925,47.1885283 7.43728302,47.2301887 7.56679245,47.28 C7.6365283,47.3035472 7.70354717,47.330717 7.77328302,47.3524528 C7.92181132,47.4013585 8.07215094,47.4430189 8.22611321,47.4883019 C8.27501887,47.5009811 8.32483019,47.517283 8.37645283,47.5299623 C8.54218868,47.5752453 8.71154717,47.6205283 8.88090566,47.6531321 L8.9850566,47.6757736 C9.16618868,47.7129057 9.34732075,47.7473208 9.53479245,47.7763019 L9.6,47.7862642 C9.79562264,47.8170566 9.9930566,47.8415094 10.1913962,47.861434 L10.224,47.861434 C10.4313962,47.8813585 10.6396981,47.898566 10.8461887,47.904 L10.8525283,47.904 L10.8525283,47.9184906 L11.7581887,47.9184906 L11.7581887,47.904 L11.7645283,47.904 C11.9728302,47.898566 12.1793208,47.8813585 12.3849057,47.861434 L12.4193208,47.861434 C12.6176604,47.8415094 12.8141887,47.8170566 13.0089057,47.7862642 L13.0768302,47.7763019 C13.2579623,47.7473208 13.4445283,47.7129057 13.6256604,47.6757736 L13.730717,47.6531321 C13.9003774,47.6163019 14.0685283,47.5752453 14.2351698,47.5299623 C14.2849811,47.517283 14.3347925,47.5009811 14.3846038,47.4883019 C14.5358491,47.4448302 14.6870943,47.3977358 14.837434,47.3524528 C14.9053585,47.330717 14.9723774,47.3035472 15.0412075,47.2818113 C15.1716226,47.234717 15.3020377,47.1912453 15.4297358,47.138717 C15.5203019,47.1024906 15.6108679,47.0644528 15.6969057,47.0255094 C15.8037736,46.9802264 15.9106415,46.9349434 16.0156981,46.8896604 C16.1497358,46.8280755 16.2801509,46.7610566 16.4114717,46.6949434 C16.469434,46.6659623 16.5264906,46.6406038 16.5817358,46.6098113 C16.6016604,46.5998491 16.6188679,46.5871698 16.6378868,46.5772075 C16.8896604,46.4431698 17.1341887,46.2982642 17.3741887,46.1452075 C17.4330566,46.1089811 17.4873962,46.0673208 17.5453585,46.0283774 C17.7509434,45.890717 17.9556226,45.7485283 18.1530566,45.5963774 C18.1910943,45.5692075 18.2264151,45.5375094 18.2662642,45.5058113 C18.4836226,45.3355472 18.6949434,45.1568302 18.9002264,44.9696604 L18.9455094,44.928 C19.1701132,44.7215094 19.3862642,44.5053585 19.5939623,44.2795472 L19.5939623,44.2795472 C21.7242758,46.6015352 24.7313977,47.9227368 27.882566,47.9212089 L28.3308679,47.9184906 Z" id="Path" fill="#231F20"></path>
            <g id="Fill-1" transform="translate(78.158491, 15.667925)" fill="url(#linearGradient-2)">
                <path d="M11.3015547,-3.86106241e-15 C13.2055245,-3.86106241e-15 15.0018113,0.474566038 16.5759396,1.30949434 C18.5813434,2.37273962 20.229917,4.02058868 21.2943396,6.02680755 C22.1258264,7.5989434 22.6012075,9.3888 22.6034717,11.2886038 L22.6034717,11.2886038 L22.6050113,11.3007396 C22.6050113,11.3053585 22.6034717,11.3087094 22.6034717,11.3117887 C22.6012075,13.2112302 22.1258264,15.0028981 21.2943396,16.5751245 C20.229917,18.5798038 18.5813434,20.2287396 16.5759396,21.2919849 C15.0018113,22.127366 13.2055245,22.6034717 11.3015547,22.6034717 C9.39803774,22.6034717 7.60356226,22.127366 6.02762264,21.2908981 C4.02249057,20.2276528 2.37355472,18.5798038 1.31112453,16.5751245 C0.475743396,14.9999094 -1.15831872e-14,13.2055245 -1.15831872e-14,11.3007396 C-1.15831872e-14,9.39649811 0.475743396,7.60166038 1.31112453,6.02680755 C2.37355472,4.02058868 4.02249057,2.37273962 6.02762264,1.30949434 C7.60356226,0.474566038 9.39803774,-3.86106241e-15 11.3015547,-3.86106241e-15 Z M11.3015547,6.02680755 C8.39311698,6.02680755 6.02762264,8.39193962 6.02762264,11.3007396 C6.02762264,14.2088151 8.39311698,16.5751245 11.3015547,16.5751245 C14.2084528,16.5751245 16.5721358,14.2118943 16.5759396,11.3068981 L16.5759396,11.3068981 L16.5759396,11.295034 C16.5721358,8.38849811 14.2084528,6.02680755 11.3015547,6.02680755 Z"></path>
            </g>
        </g>
    </g>
</svg>